<svg width="1024" height="1024" viewBox="0 0 1024 1024" fill="none" xmlns="http://www.w3.org/2000/svg">
  <defs>
    <linearGradient id="bg" x1="112" y1="104" x2="900" y2="920" gradientUnits="userSpaceOnUse">
      <stop stop-color="#0F2936"/>
      <stop offset="0.62" stop-color="#091A24"/>
      <stop offset="1" stop-color="#061219"/>
    </linearGradient>
    <radialGradient id="glow" cx="0" cy="0" r="1" gradientUnits="userSpaceOnUse" gradientTransform="translate(516 404) rotate(90) scale(342 334)">
      <stop stop-color="#2CD4D9" stop-opacity="0.3"/>
      <stop offset="1" stop-color="#2CD4D9" stop-opacity="0"/>
    </radialGradient>
    <linearGradient id="bubble" x1="190" y1="210" x2="834" y2="556" gradientUnits="userSpaceOnUse">
      <stop stop-color="#2A90A3" stop-opacity="0.42"/>
      <stop offset="1" stop-color="#0F4150" stop-opacity="0.3"/>
    </linearGradient>
    <linearGradient id="badge" x1="695" y1="183" x2="839" y2="347" gradientUnits="userSpaceOnUse">
      <stop stop-color="#96FFF5"/>
      <stop offset="1" stop-color="#2CD4D9"/>
    </linearGradient>
    <filter id="badgeShadow" x="654" y="154" width="210" height="212" filterUnits="userSpaceOnUse" color-interpolation-filters="sRGB">
      <feFlood flood-opacity="0" result="BackgroundImageFix"/>
      <feColorMatrix in="SourceAlpha" type="matrix" values="0 0 0 0 0 0 0 0 0 0 0 0 0 0 0 0 0 0 127 0" result="hardAlpha"/>
      <feOffset dy="12"/>
      <feGaussianBlur stdDeviation="10"/>
      <feComposite in2="hardAlpha" operator="out"/>
      <feColorMatrix type="matrix" values="0 0 0 0 0.0117647 0 0 0 0 0.145098 0 0 0 0 0.156863 0 0 0 0.34 0"/>
      <feBlend mode="normal" in2="BackgroundImageFix" result="effect1_dropShadow_0_1"/>
      <feBlend mode="normal" in="SourceGraphic" in2="effect1_dropShadow_0_1" result="shape"/>
    </filter>
  </defs>

  <rect x="64" y="64" width="896" height="896" rx="240" fill="url(#bg)"/>
  <rect x="64" y="64" width="896" height="896" rx="240" stroke="#1B3E49" stroke-width="10"/>

  <circle cx="516" cy="404" r="342" fill="url(#glow)"/>
  <circle cx="824" cy="216" r="102" fill="#38D8DB" fill-opacity="0.08"/>

  <path d="M238 210C195.027 210 160 245.027 160 288V492C160 534.973 195.027 570 238 570H350L350 688C350 706.022 371.044 715.902 384.93 704.401L555 570H708C750.973 570 786 534.973 786 492V288C786 245.027 750.973 210 708 210H238Z" fill="url(#bubble)"/>
  <path d="M238 210C195.027 210 160 245.027 160 288V492C160 534.973 195.027 570 238 570H350L350 688C350 706.022 371.044 715.902 384.93 704.401L555 570H708C750.973 570 786 534.973 786 492V288C786 245.027 750.973 210 708 210H238Z" stroke="#A5FFF4" stroke-opacity="0.18" stroke-width="8"/>

  <rect x="214" y="270" width="50" height="18" rx="9" fill="#A5FFF4" fill-opacity="0.25"/>
  <rect x="278" y="270" width="50" height="18" rx="9" fill="#A5FFF4" fill-opacity="0.18"/>
  <rect x="342" y="270" width="50" height="18" rx="9" fill="#A5FFF4" fill-opacity="0.12"/>

  <g transform="translate(192 226) scale(40)" shape-rendering="crispEdges">
    <rect width="16" height="16" fill="none"/>

    <g fill="#0A131A" opacity="0.22" transform="translate(0.45 0.6)">
      <rect x="1" y="5" width="1" height="3"/>
      <rect x="2" y="4" width="1" height="1"/>
      <rect x="2" y="8" width="1" height="1"/>
      <rect x="3" y="3" width="1" height="1"/>
      <rect x="3" y="9" width="1" height="1"/>
      <rect x="4" y="2" width="1" height="1"/>
      <rect x="4" y="10" width="1" height="1"/>
      <rect x="5" y="2" width="6" height="1"/>
      <rect x="11" y="2" width="1" height="1"/>
      <rect x="12" y="3" width="1" height="1"/>
      <rect x="12" y="9" width="1" height="1"/>
      <rect x="13" y="4" width="1" height="1"/>
      <rect x="13" y="8" width="1" height="1"/>
      <rect x="14" y="5" width="1" height="3"/>
      <rect x="5" y="11" width="6" height="1"/>
      <rect x="4" y="12" width="1" height="1"/>
      <rect x="11" y="12" width="1" height="1"/>
      <rect x="3" y="13" width="1" height="1"/>
      <rect x="12" y="13" width="1" height="1"/>
      <rect x="5" y="14" width="6" height="1"/>
      <rect x="5" y="3" width="6" height="1"/>
      <rect x="4" y="4" width="8" height="1"/>
      <rect x="3" y="5" width="10" height="1"/>
      <rect x="3" y="6" width="10" height="1"/>
      <rect x="3" y="7" width="10" height="1"/>
      <rect x="4" y="8" width="8" height="1"/>
      <rect x="5" y="9" width="6" height="1"/>
      <rect x="5" y="12" width="6" height="1"/>
      <rect x="6" y="13" width="4" height="1"/>
      <rect x="1" y="6" width="2" height="1"/>
      <rect x="2" y="5" width="1" height="1"/>
      <rect x="2" y="7" width="1" height="1"/>
      <rect x="13" y="6" width="2" height="1"/>
      <rect x="13" y="5" width="1" height="1"/>
      <rect x="13" y="7" width="1" height="1"/>
    </g>

    <g fill="#3A0A0D">
      <rect x="1" y="5" width="1" height="3"/>
      <rect x="2" y="4" width="1" height="1"/>
      <rect x="2" y="8" width="1" height="1"/>
      <rect x="3" y="3" width="1" height="1"/>
      <rect x="3" y="9" width="1" height="1"/>
      <rect x="4" y="2" width="1" height="1"/>
      <rect x="4" y="10" width="1" height="1"/>
      <rect x="5" y="2" width="6" height="1"/>
      <rect x="11" y="2" width="1" height="1"/>
      <rect x="12" y="3" width="1" height="1"/>
      <rect x="12" y="9" width="1" height="1"/>
      <rect x="13" y="4" width="1" height="1"/>
      <rect x="13" y="8" width="1" height="1"/>
      <rect x="14" y="5" width="1" height="3"/>
      <rect x="5" y="11" width="6" height="1"/>
      <rect x="4" y="12" width="1" height="1"/>
      <rect x="11" y="12" width="1" height="1"/>
      <rect x="3" y="13" width="1" height="1"/>
      <rect x="12" y="13" width="1" height="1"/>
      <rect x="5" y="14" width="6" height="1"/>
    </g>

    <g fill="#FF4F40">
      <rect x="5" y="3" width="6" height="1"/>
      <rect x="4" y="4" width="8" height="1"/>
      <rect x="3" y="5" width="10" height="1"/>
      <rect x="3" y="6" width="10" height="1"/>
      <rect x="3" y="7" width="10" height="1"/>
      <rect x="4" y="8" width="8" height="1"/>
      <rect x="5" y="9" width="6" height="1"/>
      <rect x="5" y="12" width="6" height="1"/>
      <rect x="6" y="13" width="4" height="1"/>
    </g>

    <g fill="#FF775F">
      <rect x="1" y="6" width="2" height="1"/>
      <rect x="2" y="5" width="1" height="1"/>
      <rect x="2" y="7" width="1" height="1"/>
      <rect x="13" y="6" width="2" height="1"/>
      <rect x="13" y="5" width="1" height="1"/>
      <rect x="13" y="7" width="1" height="1"/>
    </g>

    <g fill="#081016">
      <rect x="6" y="5" width="1" height="1"/>
      <rect x="9" y="5" width="1" height="1"/>
    </g>

    <g fill="#F5FBFF">
      <rect x="6" y="4" width="1" height="1"/>
      <rect x="9" y="4" width="1" height="1"/>
    </g>
  </g>

  <g filter="url(#badgeShadow)">
    <circle cx="758" cy="250" r="78" fill="url(#badge)"/>
    <circle cx="758" cy="250" r="74" stroke="white" stroke-opacity="0.22" stroke-width="8"/>
    <path d="M728 233C728 207.042 749.266 187 778 187C805.901 187 828 205.796 828 230C828 248.842 818.258 261.479 798.773 272.491C780.515 282.812 773 292.732 773 308V314" stroke="#F6FFFE" stroke-width="24" stroke-linecap="round" stroke-linejoin="round"/>
    <circle cx="772" cy="346" r="11" fill="#F6FFFE"/>
  </g>

  <path d="M156 254C218 186 311 138 418 126" stroke="#8AFFF2" stroke-opacity="0.16" stroke-width="16" stroke-linecap="round"/>
  <path d="M654 854C760 840 848 780 890 676" stroke="#FF8F63" stroke-opacity="0.14" stroke-width="16" stroke-linecap="round"/>
</svg>
